# xmcd
#
# Track frame offsets: 
#        150
#        6289
#        21861
#        40155
#        54435
#        72564
#        90014
#        107108
#        139360
#        153513
#        174237
#        186967
#        200436
#        211897
#        217674
#        227175
#        240406
#        259883
#        265658
#        287431
#
# Disc length: 4209 seconds
#
# Revision: 0
# Processed by: cddbd v1.5.2PL0 Copyright (c) Steve Scherf et al.
# Submitted via: ExactAudioCopy v1.0b3
#
DISCID=11106f14
DTITLE=Matti Norlin - Live Blues 3 Trappor Upp
DYEAR=2010
DGENRE=Blues
TTITLE0=Presentation
TTITLE1=Mind Your Own Business
TTITLE2=Up Jumped The Devil
TTITLE3=Mainstream Blues
TTITLE4=I've Found Another Way
TTITLE5=Airy Man Blues
TTITLE6=Airplane Blues
TTITLE7=How You Want It Done
TTITLE8=Biscuits
TTITLE9=Not Allowed
TTITLE10=Groovin'
TTITLE11=Milkcow Blues Boogie
TTITLE12=Piccolo Rag
TTITLE13=Mellansnack
TTITLE14=Shake It And Break It
TTITLE15=Bird Nest Bound
TTITLE16=Big Road Blues
TTITLE17=Mellansnack
TTITLE18=Ragtime Walks In Golden Shoes
TTITLE19=Emigration Blues
EXTD=
EXTT0=
EXTT1=
EXTT2=
EXTT3=
EXTT4=
EXTT5=
EXTT6=
EXTT7=
EXTT8=
EXTT9=
EXTT10=
EXTT11=
EXTT12=
EXTT13=
EXTT14=
EXTT15=
EXTT16=
EXTT17=
EXTT18=
EXTT19=
PLAYORDER=
